<?xml version="1.0" encoding="utf-8"?>
<!-- Generator: Adobe Illustrator 19.1.0, SVG Export Plug-In . SVG Version: 6.00 Build 0)  -->
<svg version="1.1" id="_x34_inch::4iSb::4iSbSa::4iSbSaSm"
	 xmlns="http://www.w3.org/2000/svg" xmlns:xlink="http://www.w3.org/1999/xlink" x="0px" y="0px" viewBox="0 0 949.6 949.6"
	 style="enable-background:new 0 0 949.6 949.6;" xml:space="preserve">
<style type="text/css">
	.st0{fill:none;stroke:#e3e31e;stroke-linecap:round;stroke-linejoin:round;}
	.st1{fill:#e3e31e;}
</style>
<path class="st0" d="M422.9,289.7c25.7-60.5,7.4-130.7-44.6-170.9s-124.6-40.3-176.6-0.2c-52.1,40.1-70.6,110.3-45,170.8
	c25.6,60.5,88.8,96.2,153.8,86.8"/>
<path class="st1" d="M678.7,682.4c-2.5-1.3-5-2.7-7.5-4c-1.2-0.6-2.4-1.1-3.6-1.6c-5.8-2.3-10.7-4.6-15.7-8.4
	c-8.2-6.2-14.7-13.7-21.4-21.3c-13.3-15.2-26.3-30.7-39.4-46.1c-6.5-7.7-13-15.5-19.1-23.5c-6.1-8.1-12.1-16.2-17.9-24.4
	c-3.5-4.8-6.9-9.7-10.2-14.6c-2.3-3.4-4.7-6.8-6.2-10.7c-1.4-3.6-2-7.2-2.3-11c-0.6-6.3-0.5-12.7-0.4-19c0-19.6,0-39.2,0-58.7
	c-0.1-4.5-0.1-8.9,0.3-13.3c0.2-2.4,0.5-4.7,1.1-7c0.8-2.7,2.1-5.2,3.5-7.6c1.7-2.8,3.7-5.3,5.7-7.9c4-5,8.1-9.8,12.3-14.6
	c12.6-14.5,25.5-28.8,38-43.4c12.4-14.7,24.5-29.6,37.1-44.1c6.3-7.3,12.6-14.4,20.5-20.2c4.6-3.3,9.6-5.6,14.7-7.8
	c1.1-0.5,2.2-1,3.3-1.5c2.5-1.3,4.9-2.7,7.4-4.1c24.2-13.2,27.5-46.6,6.4-64.3c-21.1-17.7-53.4-8.6-62.2,17.5
	c-0.9,2.6-1.8,5.2-2.7,7.9c-0.3,0.9-0.5,1.8-0.6,2.7c-0.6,4.2-1.1,8.3-2.6,12.3c-2.9,7.7-7.6,13.8-12.5,20.1
	c-9.7,12.5-20.2,24.3-30.2,36.6c-10,12.3-19.4,25-29.6,37.1c-7,8.2-8.9,9.8-19.8,11.5c-4.7,0.7-9.5,1.2-14.2,1.7
	c-3.1,0.3-6.2,0.5-9.4,0.5c-6.9,0-13.7,0-20.6,0c0,1.4,0,2.7,0,4.1c0,1.2,0.3,2.2,1,3.3c1.1,1.5,1.6,3,1.6,4.9c0,4.1,0,8.3,0,12.4
	c0,4.7-3.8,8.5-8.5,8.5s-8.5-3.8-8.5-8.5c0-4.1,0-8.3,0-12.4c0-1.9,0.5-3.4,1.6-4.9c0.7-1,1-2,1-3.3c0-1.4,0-2.7,0-4.1
	c-6.9,0-13.7,0-20.6,0c-3.1,0-6.3-0.2-9.4-0.5c-4.7-0.5-9.5-1-14.2-1.7c-10.9-1.6-12.8-3.2-19.8-11.5
	c-10.2-12.1-19.7-24.8-29.6-37.1c-10-12.3-20.5-24.2-30.2-36.6c-4.9-6.3-9.6-12.4-12.5-20.1c-1.5-4-2.1-8.2-2.6-12.3
	c-0.1-0.9-0.3-1.8-0.6-2.7c-0.8-2.6-1.8-5.2-2.7-7.9c-8.8-26.1-41.1-35.2-62.2-17.5c-21.1,17.7-17.8,51.1,6.4,64.3
	c2.5,1.3,4.9,2.7,7.4,4.1c1.1,0.6,2.2,1.1,3.3,1.5c5.2,2.1,10.2,4.4,14.7,7.8c7.9,5.8,14.2,12.9,20.5,20.2
	c12.6,14.5,24.7,29.5,37.1,44.1c12.4,14.7,25.4,28.9,38,43.4c4.2,4.8,8.3,9.6,12.3,14.6c2,2.5,4,5.1,5.7,7.9
	c1.5,2.4,2.8,4.8,3.5,7.6c0.7,2.3,0.9,4.6,1.1,7c0.4,4.4,0.3,8.9,0.3,13.3c0,19.6,0,39.2,0,58.7c0.1,6.4,0.1,12.7-0.4,19
	c-0.3,3.8-0.9,7.4-2.3,11c-1.6,3.9-3.9,7.3-6.2,10.7c-3.3,4.9-6.8,9.8-10.2,14.6c-5.9,8.2-11.8,16.4-17.9,24.4
	c-6.1,8.1-12.5,15.8-19.1,23.5c-13.1,15.4-26,30.9-39.3,46.1c-6.7,7.6-13.2,15.2-21.4,21.4c-5,3.8-9.9,6.1-15.7,8.4
	c-1.2,0.5-2.4,1-3.6,1.6c-2.5,1.3-5,2.7-7.5,4c-24.3,13-27.9,46.4-6.9,64.2c21,17.9,53.3,9.1,62.3-17c0.9-2.6,1.9-5.2,2.7-7.8
	c0.3-0.9,0.5-1.8,0.6-2.7c0.6-4.1,1.2-8.2,2.7-12.2c2.9-7.6,7.6-13.7,12.5-19.9c5.1-6.5,25-29.7,30.4-36c5.1-6,10.2-11.9,15.2-18
	c5-6.1,9.9-12.2,15.3-17.9c5.6-5.8,11.2-10.6,19.1-13.3c4.6-1.6,9.4-2.1,14.2-2.6c3-0.3,6-0.5,9.1-0.5c2.6-5.6,5.2-7.7,11.5-7.7
	c5,0,10,0,15,0c5,0,10,0,15,0c6.3,0,9,2.1,11.5,7.7c3,0,6,0.2,9.1,0.5c4.8,0.5,9.5,1,14.2,2.6c7.9,2.7,13.5,7.5,19.1,13.3
	c5.5,5.7,10.3,11.8,15.3,17.9c5,6.1,10.1,12,15.2,18c5.4,6.3,25.2,29.5,30.4,36c4.9,6.2,9.6,12.3,12.5,19.9c1.5,4,2.1,8,2.7,12.2
	c0.1,0.9,0.3,1.8,0.6,2.7c0.9,2.6,1.8,5.2,2.7,7.8c9,26,41.4,34.9,62.3,17C706.5,728.8,702.9,695.4,678.7,682.4z M682.4,226.7
	c2.8-0.2,6.7-1.4,8.6,2c1.7,3-0.2,6.8-3.7,7c-2.8,0.2-6.7,1.4-8.6-2C677,230.8,679,227,682.4,226.7z M664.6,264
	c-3,1.7-6.8-0.2-7-3.7c-0.2-2.8-1.4-6.7,2-8.6c3-1.7,6.8,0.2,7,3.7C666.8,258.1,667.9,262.1,664.6,264z M659.9,201.9
	c3.6,1.4,3,5.5,3.3,8.2c0.3,3.4-3.2,6-6.4,4.7c-3.6-1.4-3-5.5-3.3-8.2C653.2,203.2,656.7,200.6,659.9,201.9z M649.9,230.4
	c1.5-5.7,7.3-9.1,13-7.6c5.7,1.5,9.1,7.3,7.6,13c-1.5,5.7-7.3,9.1-13,7.6C651.8,241.9,648.4,236.1,649.9,230.4z M629,233.4
	c1.4-3.6,5.5-3,8.2-3.3c3.4-0.3,6,3.2,4.7,6.4c-1.4,3.6-5.5,3-8.2,3.3C630.2,240.1,627.7,236.6,629,233.4z M271.2,233.8
	c-2,3.4-5.9,2.2-8.6,2c-3.4-0.3-5.4-4-3.7-7c2-3.4,5.9-2.2,8.6-2C271,227,273,230.8,271.2,233.8z M286.9,210.2
	c0.2-2.8-0.4-6.8,3.3-8.2c3.2-1.3,6.7,1.3,6.4,4.7c-0.2,2.8,0.4,6.8-3.3,8.2C290,216.1,286.6,213.6,286.9,210.2z M292.4,260.3
	c-0.3,3.4-4,5.4-7,3.7c-3.4-2-2.2-5.9-2-8.6c0.3-3.4,4-5.4,7-3.7C293.8,253.7,292.7,257.6,292.4,260.3z M292.5,243.4
	c-5.7,1.5-11.5-1.9-13-7.6c-1.5-5.7,1.9-11.5,7.6-13c5.7-1.5,11.5,1.9,13,7.6C301.6,236.1,298.2,241.9,292.5,243.4z M316.3,239.8
	c-2.8-0.2-6.8,0.4-8.2-3.3c-1.3-3.2,1.3-6.7,4.7-6.4c2.8,0.2,6.8-0.4,8.2,3.3C322.3,236.6,319.8,240.1,316.3,239.8z M267.5,723.1
	c-2.8,0.2-6.7,1.3-8.6-2.1c-1.7-3,0.3-6.8,3.7-7c2.8-0.2,6.7-1.3,8.6,2.1C273,719.1,271,722.8,267.5,723.1z M285.7,686
	c3-1.7,6.8,0.3,7,3.7c0.2,2.8,1.3,6.7-2.1,8.6c-3,1.7-6.8-0.3-7-3.7C283.4,691.8,282.3,687.9,285.7,686z M289.9,748.1
	c-3.6-1.5-3-5.5-3.2-8.3c-0.2-3.4,3.2-5.9,6.4-4.6c3.6,1.5,3,5.5,3.2,8.3C296.5,746.9,293.1,749.4,289.9,748.1z M300.1,719.7
	c-1.5,5.7-7.4,9-13.1,7.4c-5.7-1.5-9-7.4-7.4-13.1c1.5-5.7,7.4-9,13.1-7.4C298.3,708.2,301.6,714,300.1,719.7z M321,716.8
	c-1.5,3.6-5.5,3-8.3,3.2c-3.4,0.2-5.9-3.2-4.6-6.4c1.5-3.6,5.5-3,8.3-3.2C319.8,710.2,322.3,713.6,321,716.8z M431.8,427.1
	c2.6,0,4.7,2.1,4.7,4.7c0,2.6-2.1,4.7-4.7,4.7c-2.6,0-4.7-2.1-4.7-4.7C427.1,429.2,429.2,427.1,431.8,427.1z M423.2,505.8
	c-1.2-1.5-1.1-3-1.1-4.7c0-11.1,0-22.2,0-33.3c0-5.6,0-11.1,0-16.7c0-3,2.2-5.4,5.3-5c3.6,0.5,4.1,3.3,4.1,6.3c0,11.1,0,22.2,0,33.3
	c0,5.6,0,11.1,0,16.7c0,2.8-1.9,5.1-4.9,5C425.2,507.4,424.2,506.9,423.2,505.8z M427.1,518.2c0-2.6,2.1-4.7,4.7-4.7
	c2.6,0,4.7,2.1,4.7,4.7c0,2.6-2.1,4.7-4.7,4.7C429.2,522.9,427.1,520.8,427.1,518.2z M434,593c-2.6,0-4.7-2.1-4.7-4.7
	s2.1-4.7,4.7-4.7c2.6,0,4.7,2.1,4.7,4.7S436.6,593,434,593z M435.3,380.5c-2.6,0-4.7-2.1-4.7-4.7c0-2.6,2.1-4.7,4.7-4.7
	c2.6,0,4.7,2.1,4.7,4.7C440,378.4,437.9,380.5,435.3,380.5z M459,376.8c-0.8,2.2-2.9,3.7-5.2,3.7c-2.3,0-4.4-1.5-5.2-3.7
	c-0.7-1.9-0.3-4.9-0.3-6.8c0-1.9-0.4-4.8,0.3-6.8c0.8-2.2,2.9-3.7,5.2-3.7c2.3,0,4.4,1.5,5.2,3.7c0.7,1.9,0.3,4.9,0.3,6.8
	C459.3,371.9,459.6,374.9,459,376.8z M476.4,557c-3,0.9-6.1-1.3-6.1-4.5c0-5.8,0-11.7,0-17.5c0-1.4-0.2-2.8,0.2-4.3
	c0.5-1.6,1.4-2.5,3.1-3c3-0.9,6.1,1.3,6.1,4.5c0,5.8,0,11.7,0,17.5C479.7,552.6,480.1,555.8,476.4,557z M522.9,431.8
	c0,2.6-2.1,4.7-4.7,4.7c-2.6,0-4.7-2.1-4.7-4.7c0-2.6,2.1-4.7,4.7-4.7C520.8,427.1,522.9,429.2,522.9,431.8z M501.5,376.8
	c-0.8,2.2-2.9,3.7-5.2,3.7c-2.3,0-4.4-1.5-5.2-3.7c-0.7-1.9-0.3-4.9-0.3-6.8c0-1.9-0.4-4.8,0.3-6.8c0.8-2.2,2.9-3.7,5.2-3.7
	c2.3,0,4.4,1.5,5.2,3.7c0.7,1.9,0.3,4.9,0.3,6.8C501.8,371.9,502.2,374.9,501.5,376.8z M510,375.8c0-2.6,2.1-4.7,4.7-4.7
	c2.6,0,4.7,2.1,4.7,4.7c0,2.6-2.1,4.7-4.7,4.7C512.1,380.5,510,378.4,510,375.8z M516,593c-2.6,0-4.7-2.1-4.7-4.7s2.1-4.7,4.7-4.7
	c2.6,0,4.7,2.1,4.7,4.7S518.6,593,516,593z M518.2,522.9c-2.6,0-4.7-2.1-4.7-4.7c0-2.6,2.1-4.7,4.7-4.7c2.6,0,4.7,2.1,4.7,4.7
	C522.9,520.8,520.8,522.9,518.2,522.9z M526.8,505.8c-0.9,1.1-1.9,1.6-3.4,1.7c-2.9,0.1-4.9-2.2-4.9-5c0-5.6,0-11.1,0-16.7
	c0-11.1,0-22.2,0-33.3c0-3,0.4-5.8,4.1-6.3c3.1-0.4,5.3,2,5.3,5c0,5.6,0,11.1,0,16.7c0,11.1,0,22.2,0,33.3
	C527.9,502.8,528,504.3,526.8,505.8z M637.2,720c-2.8-0.2-6.8,0.4-8.3-3.2c-1.3-3.2,1.2-6.7,4.6-6.4c2.8,0.2,6.8-0.4,8.3,3.2
	C643.2,716.8,640.7,720.3,637.2,720z M657.3,689.7c0.2-3.4,4-5.5,7-3.7c3.4,1.9,2.2,5.9,2.1,8.6c-0.2,3.4-4,5.5-7,3.7
	C656,696.4,657.1,692.4,657.3,689.7z M663.3,739.8c-0.2,2.8,0.4,6.8-3.2,8.3c-3.2,1.3-6.7-1.2-6.4-4.6c0.2-2.8-0.4-6.8,3.2-8.3
	C660.1,733.9,663.6,736.4,663.3,739.8z M663,727.1c-5.7,1.5-11.5-1.8-13.1-7.4c-1.5-5.7,1.8-11.5,7.4-13.1
	c5.7-1.5,11.5,1.8,13.1,7.4C672,719.7,668.7,725.6,663,727.1z M682.5,723.1c-3.4-0.2-5.5-4-3.7-7c1.9-3.4,5.9-2.2,8.6-2.1
	c3.4,0.2,5.5,4,3.7,7C689.2,724.4,685.2,723.3,682.5,723.1z"/>
<path class="st0" d="M422.9,660.3c25.7,60.5,7.4,130.7-44.6,170.9c-52,40.2-124.6,40.3-176.6,0.2c-52.1-40.1-70.6-110.3-45-170.8
	c25.6-60.5,88.8-96.2,153.8-86.8"/>
<path class="st0" d="M527.1,660.3c-25.7,60.5-7.4,130.7,44.6,170.9c52,40.2,124.6,40.3,176.6,0.2c52.1-40.1,70.6-110.3,45-170.8
	c-25.6-60.5-88.8-96.2-153.8-86.8"/>
<path class="st0" d="M527.1,289.7c-25.7-60.5-7.4-130.7,44.6-170.9c52-40.2,124.6-40.3,176.6-0.2c52.1,40.1,70.6,110.3,45,170.8
	c-25.6,60.5-88.8,96.2-153.8,86.8"/>
</svg>
